<svg xmlns="http://www.w3.org/2000/svg" data-name="Layer 1" width="773.099" height="600">
    <path d="M11.893 552.604c5.052 17.527 19.803 29.795 35.19 40.218q3.224 2.183 6.449 4.266c.014.006.03.02.044.026.103.066.207.133.303.2l1.328.855-.242.108s-.237.127.023.02c.077-.032.158-.06.235-.093 8.94-3.606 18.037-7.477 24.888-14.23 7.106-7.014 11.26-18.015 7.411-27.229a17.592 17.592 0 0 0-1.904-3.418 19.138 19.138 0 0 0-.999-1.294 18.856 18.856 0 0 0-32.385 5.73c-1.13-10.526 7.548-19.343 15.9-25.849 8.357-6.502 17.852-13.583 19.468-24.05.902-5.824-1.123-11.468-4.813-15.999-.114-.138-.228-.275-.345-.409a27.518 27.518 0 0 0-17.688-9.489c-12.813-1.331-25.259 5.45-34.567 14.36-14.982 14.333-24.04 36.35-18.296 56.277Z" fill="#f1f1f1"/>
    <path d="M35.977 529.68a46.78 46.78 0 0 0-5.605 12.36 40.62 40.62 0 0 0-1.404 11.998 52.044 52.044 0 0 0 6.817 23.684 74.903 74.903 0 0 0 11.299 15.1q3.223 2.183 6.448 4.266c.014.006.03.02.044.026.103.066.207.133.303.2l1.328.855s-.48.235-.22.129c.078-.033.159-.062.236-.094a41.405 41.405 0 0 1 13.249-35.651 41.76 41.76 0 0 1 17.146-9.226 19.138 19.138 0 0 0-.999-1.294 43.296 43.296 0 0 0-7.146 2.704 42.424 42.424 0 0 0-19.182 18.494 43.374 43.374 0 0 0-4.723 23.801 72.589 72.589 0 0 1-1.091-1.01c-6.793-6.333-12.827-13.602-16.91-21.992a48.417 48.417 0 0 1-5.07-22.907c.333-8.653 3.781-16.669 8.773-23.646a101.345 101.345 0 0 1 19.21-19.799 115.158 115.158 0 0 1 23.893-14.75.828.828 0 0 0 .416-1.063.704.704 0 0 0-.345-.409.613.613 0 0 0-.533.023c-1.054.485-2.1.977-3.139 1.49A116.465 116.465 0 0 0 54.71 508.84c-7.083 6.039-13.75 12.938-18.733 20.839Z" fill="#fff"/>
    <path fill="#ffb7b7" d="M238.265 584.987h13.425l6.386-51.78-19.813.001.002 51.779z"/>
    <path d="M234.841 580.604h26.439a16.849 16.849 0 0 1 16.848 16.847v.547l-43.286.002Z" fill="#2f2e41"/>
    <path fill="#ffb7b7" d="M165.581 584.987h13.425l6.386-51.78-19.813.001.002 51.779z"/>
    <path d="M162.157 580.604H188.595a16.849 16.849 0 0 1 16.848 16.847v.547l-43.285.002ZM160.112 350.309v136.716l3.461 88.259h28.554l9.519-166.135 19.036 68.358 12.114 96.046 34.611-1.73-23.362-221.514h-83.933z" fill="#2f2e41"/>
    <circle cx="193.306" cy="206.671" r="20.767" fill="#ffb8b8"/>
    <path fill="#007c94" d="m184.677 232.849-5.529 5.838-5.192 116.814 61.436-1.73-14.71-102.104-12.979-12.438-6.586-6.38h-16.44z"/>
    <path d="m174.821 245.61 4.664-7.57 1.393 16.222s11.25 36.342 10.384 68.358 4.326 107.295-2.596 108.16-36.342 2.597-36.342-3.46-1.73-167-1.73-167ZM206.309 238.04l11.777 9.3 25.958 9.518s0 110.757 5.192 136.715 14.71 28.555 2.596 29.42-11.249-3.461-11.249-3.461-35.476-110.757-33.746-138.446-2.259-43.045-.528-43.045ZM173.66 213.169s1.764-3.099 1.353-13.45 15.353-4.497 28.524-5.485 10.384 17.282 10.384 17.282.95-1.086 2.984-9.903-2.585-17.604-2.585-17.604c-1.36-9.266-8.692-6.296-8.692-6.296 3.531 1.375 2.853 4.314 2.853 4.314-2.989-5.24-10.32-2.271-10.32-2.271-9.78-6.136-19.69 1.944-19.69 1.944-11.813 2.681-4.885 12.076-4.885 12.076-11.88 6.003.073 19.393.073 19.393Z" fill="#2f2e41"/>
    <path d="M152.353 414.808a8.76 8.76 0 0 0-1.553-13.343l3.74-19.665-11.396-5.188-4.893 27.846a8.808 8.808 0 0 0 14.102 10.35Z" fill="#ffb7b7"/>
    <path d="m154.92 260.32-2.298-1.233s-12.412 4.693-11.547 8.155-6.922 124.6-4.326 128.927 23.363.866 23.363.866Z" fill="#2f2e41"/>
    <path d="M253.7 406.652a8.76 8.76 0 0 1-.308-13.429l-6.426-18.959 10.57-6.715 8.698 26.901a8.808 8.808 0 0 1-12.534 12.202Z" fill="#ffb7b7"/>
    <path d="M243.557 390.123s21.046.555 23.018-4.09-22.501-123.54-22.123-127.088-12.565-6.478-12.565-6.478l-2.105 1.537Z" fill="#2f2e41"/>
    <path d="M382 600H1a1 1 0 0 1 0-2h381a1 1 0 0 1 0 2Z" fill="#cbcbcb"/>
    <path d="M773.1 308H421.44V89.07H773.1Zm-343.477-8.182h335.294V97.25H429.623Z" fill="#e5e5e5"/>
    <path fill="#fff" d="M425.532 93.16h343.476v210.748H425.532z"/>
    <path d="M769.008 146.574v-12.94H721.36V93.16h-12.94v40.474h-84.828V93.16h-12.94v40.474H479.815V93.16h-12.94v40.474h-41.343v12.94h41.343v50.322h-41.343v12.94h41.343v53.916h-41.343v12.94h111.075v27.217h12.94v-27.217h61.105v27.217h12.94v-27.217h145.416v-12.94H623.592v-53.917h145.416v-12.94H721.36v-50.321Zm-158.356 0v15.815H479.815v-15.815Zm-130.837 28.755h130.837v21.567H479.815Zm0 88.423v-53.917h56.792v53.917Zm130.837 0h-61.105v-53.917h61.105Zm97.768-66.856h-84.828v-50.322h84.828Z" fill="#e6e6e6"/>
    <path d="M679.547 62.047c0 34.268-62.047 110.607-62.047 110.607s-62.047-76.339-62.047-110.607a62.047 62.047 0 0 1 124.094 0Z" fill="#007c94"/>
    <path d="M859.316 209.35a28.365 28.365 0 1 1-28.365-28.365 28.352 28.352 0 0 1 28.365 28.365Z" transform="translate(-213.45 -150)" fill="#fff" style="isolation:isolate"/>
    <circle cx="617.5" cy="200.71" r="16.726" fill="#007c94"/>
</svg>
